<svg width="340" height="250" viewBox="0 0 340 250" fill="none" xmlns="http://www.w3.org/2000/svg">
<g clip-path="url(#clip0_202_831)">
<path opacity="0.1" d="M4.14844 119.859C9.50146 140.542 20.8239 158.422 38.7166 167.089C75.9134 185.101 159.802 175.811 222.411 165.148C254.797 159.633 283.264 144.412 303.942 122.993L4.14844 119.859Z" fill="#246BFD"/>
<path opacity="0.1" d="M332.467 22.501H298.115C296.484 22.501 295.147 21.2932 295.147 19.8174C295.147 18.3416 296.484 17.1307 298.115 17.1307H304.056C302.423 17.1307 301.088 15.9229 301.088 14.444C301.088 12.9651 302.423 11.7604 304.056 11.7604H299.816C298.182 11.7604 296.845 10.5526 296.845 9.07373C296.845 7.59482 298.182 6.39013 299.816 6.39013H317.745C313.767 4.71712 309.116 3.52783 303.757 2.90238C254.865 -2.77601 237.41 0.979797 231.253 4.84036C223.578 9.71227 215.052 13.0928 206.124 14.8045C175.96 20.4336 119.548 27.2057 68.4185 12.6478C43.0063 5.39803 24.1181 17.6329 12.7988 38.085H338.433C338.008 32.1416 336.735 26.6512 334.399 21.8478C333.846 22.2748 333.166 22.5047 332.467 22.501Z" fill="#246BFD"/>
<path opacity="0.1" d="M1.23636 76.6875C-0.0831087 88.7165 0.365418 100.874 2.56768 112.773L304.174 122.752C312.476 114.144 319.53 104.413 325.13 93.8459L1.23636 76.6875ZM120.525 102.43H114.587C116.22 102.43 117.557 103.641 117.557 105.116C117.557 106.592 116.22 107.8 114.587 107.8H80.2342C78.604 107.8 77.2665 106.592 77.2665 105.116C77.2665 103.641 78.604 102.43 80.2342 102.43H86.1759C84.5425 102.43 83.2081 101.222 83.2081 99.7461C83.2081 98.2703 84.5425 97.0594 86.1759 97.0594H81.9323C80.299 97.0594 78.9615 95.8517 78.9615 94.3758C78.9615 92.9 80.299 91.6892 81.9323 91.6892H116.285C117.918 91.6892 119.252 92.8969 119.252 94.3758C119.252 95.8548 117.918 97.0594 116.285 97.0594H120.525C122.159 97.0594 123.493 98.2672 123.493 99.7461C123.493 101.225 122.159 102.43 120.525 102.43Z" fill="#246BFD"/>
<path opacity="0.1" d="M338.446 38.2698L9.16553 45.5103C5.15924 54.8243 2.50276 65.3553 1.2793 76.2684H332.677C334.833 69.8836 336.434 63.3243 337.459 56.6637C338.449 50.252 338.843 44.0498 338.446 38.2698ZM68.135 62.0093H62.1965C63.8298 62.0093 65.1673 63.2202 65.1673 64.696C65.1673 66.1718 63.8298 67.3827 62.1965 67.3827H27.8441C26.2138 67.3827 24.8763 66.1718 24.8763 64.696C24.8763 63.2202 26.2138 62.0093 27.8441 62.0093H33.7857C32.1524 62.0093 30.818 60.8015 30.818 59.3257C30.818 57.8499 32.1524 56.639 33.7857 56.639H29.5421C27.9088 56.639 26.5713 55.4313 26.5713 53.9554C26.5713 52.4796 27.9088 51.2688 29.5421 51.2688H63.8945C65.5279 51.2688 66.8623 52.4765 66.8623 53.9554C66.8623 55.4343 65.5279 56.639 63.8945 56.639H68.135C69.7684 56.639 71.1028 57.8499 71.1028 59.3257C71.1028 60.8015 69.7684 62.0093 68.135 62.0093Z" fill="#246BFD"/>
<path opacity="0.1" d="M168.481 240.655C244.557 240.655 306.23 234.983 306.23 227.986C306.23 220.989 244.557 215.317 168.481 215.317C92.4046 215.317 30.7324 220.989 30.7324 227.986C30.7324 234.983 92.4046 240.655 168.481 240.655Z" fill="#246BFD"/>
<path d="M308.873 123.341C308.872 123.319 308.872 123.298 308.873 123.276C308.873 123.242 308.873 123.212 308.873 123.181C308.811 122.828 308.678 122.491 308.482 122.192C307.777 121.063 306.794 120.134 305.628 119.493C303.594 118.377 300.799 117.9 299.985 115.771C299.736 115.111 299.73 114.394 299.606 113.703C299.391 112.628 298.896 111.628 298.172 110.805C297.447 109.981 296.519 109.362 295.48 109.011C294.512 108.687 293.468 108.598 292.528 108.198C290.426 107.304 289.316 105.101 288.376 103.064C287.16 100.435 285.944 97.8051 284.728 95.1739C283.803 95.6391 282.607 95.4204 281.741 94.8381C280.907 94.217 280.242 93.3958 279.809 92.4502C278.555 90.0162 278.016 87.2587 276.542 84.9417C275.069 82.6248 272.126 80.7946 269.525 81.8021C269.017 82.0558 268.492 82.273 267.954 82.4522C265.725 82.9729 263.26 80.428 261.352 81.6635C261.036 81.8666 260.777 82.1492 260.604 82.483C260.602 82.4625 260.602 82.4419 260.604 82.4214C260.355 82.9226 260.217 83.4708 260.197 84.0297C260.197 84.1437 260.197 84.2546 260.197 84.3625C260.197 84.381 260.197 84.3994 260.197 84.4179C260.197 84.8616 260.225 85.3114 260.231 85.7613C260.238 86.139 260.209 86.5166 260.144 86.8889V86.8581C260.108 87.0677 260.055 87.2738 259.984 87.4743C259.488 88.8054 258.114 89.6773 257.469 90.9282V90.8666C257.397 91.0026 257.334 91.1437 257.281 91.2887C257.167 91.6166 257.108 91.9612 257.106 92.3085C257.05 94.6594 259.543 96.8716 259.833 99.395C260.04 101.182 260.449 101.755 261.969 102.766L262.302 102.987C262.169 102.987 262.034 103.006 261.883 103.009C261.824 103.01 261.765 103.016 261.707 103.028C261.439 102.954 261.158 102.94 260.884 102.988C260.61 103.036 260.35 103.144 260.123 103.305C258.958 104.229 256.203 103.517 254.979 103.305C253.756 103.092 249.565 103.665 248.979 105.988C248.394 108.312 247.389 113.106 247.389 113.106C247.389 113.106 247.389 116.147 247.016 116.714C247.002 116.753 247.002 116.797 247.016 116.837C247.016 117.69 247.047 122.82 246.221 124.142C246.018 124.45 246.033 125.131 246.184 125.969C245.315 127.087 244.498 128.394 244.643 129.25C244.908 131.004 248.465 136.516 253.562 133.564C253.562 133.564 256.462 128.261 252.813 125.442L252.97 124.826C254.073 126.182 254.89 127.155 254.89 127.155C254.89 127.155 254.933 127.269 255.001 127.463H254.89C255.366 128.759 255.655 130.116 255.747 131.493C255.733 131.998 255.641 132.498 255.476 132.975H255.571C255.543 133.08 255.513 133.185 255.476 133.283C255.296 133.804 254.962 134.257 254.517 134.581C251.968 136.386 249.05 149.28 249.05 149.28C249.05 149.28 243.269 170.124 242.113 171.31C241.158 172.284 247.161 175.026 251.666 174.699C252.295 174.662 252.917 174.544 253.516 174.348C253.543 174.656 253.574 174.964 253.605 175.244C253.7 176.169 253.799 177.025 253.861 177.293C254.021 177.965 254.338 184.823 254.338 184.823C254.338 184.823 253.688 189.279 253.845 192.378C253.845 192.591 253.873 192.794 253.891 192.994L253.331 193.081C252.48 194.991 255.984 210.929 256.462 212.269C256.778 213.326 256.956 214.418 256.992 215.52C256.992 215.52 256.684 216.654 256.939 217.273C257.099 217.652 257.202 218.051 257.248 218.459C257.248 218.459 257.038 219.488 257.355 220.16C257.673 220.832 257.303 222.009 257.303 222.009C257.303 222.009 257.198 226.652 256.243 229.178C255.983 229.858 255.907 230.595 256.023 231.313C256.14 232.032 256.444 232.707 256.905 233.27C256.972 233.358 257.044 233.441 257.121 233.52C257.121 233.52 262.391 233.563 263.319 233.52H263.439C263.812 233.467 264.767 229.289 263.916 227.277C263.066 225.265 263.812 222.788 263.812 222.788V219.128C263.812 219.128 264.767 218.247 263.812 216.355C262.856 214.463 263.014 213.89 263.014 213.89C263.014 213.89 264.077 210.846 262.961 209.866C261.846 208.886 263.174 205.171 263.174 205.171L263.55 192.785C263.353 192.721 263.152 192.669 262.949 192.631C262.927 192.427 262.906 192.218 262.884 191.996C262.665 189.753 262.477 186.703 262.964 185.834C263.451 184.965 263.685 177.38 263.762 172.108L268.619 172.293C268.721 174.758 268.829 177.007 268.897 177.293C269.057 177.965 269.377 184.823 269.377 184.823C269.377 184.823 268.724 189.279 268.881 192.378C268.881 192.591 268.909 192.794 268.927 192.994L268.367 193.081C267.516 194.991 271.02 210.929 271.498 212.269C271.814 213.326 271.993 214.418 272.031 215.52C272.031 215.52 271.723 216.654 271.975 217.273C272.135 217.652 272.238 218.051 272.283 218.459C272.283 218.459 272.074 219.488 272.391 220.16C272.709 220.832 272.339 222.009 272.339 222.009C272.339 222.009 272.234 226.652 271.279 229.178C271.023 229.859 270.951 230.596 271.071 231.313C271.191 232.03 271.499 232.703 271.963 233.264C272.029 233.352 272.101 233.435 272.179 233.513C272.179 233.513 277.448 233.556 278.376 233.513H278.496C278.869 233.461 279.825 229.283 278.974 227.271C278.123 225.259 278.869 222.782 278.869 222.782V219.128C278.869 219.128 279.825 218.247 278.869 216.355C277.914 214.463 278.071 213.89 278.071 213.89C278.071 213.89 279.134 210.846 278.019 209.866C276.903 208.886 278.231 205.171 278.231 205.171L278.613 192.785C278.412 192.72 278.206 192.668 277.997 192.631C277.975 192.427 277.954 192.218 277.932 191.996C277.714 189.753 277.526 186.703 278.012 185.834C278.404 185.122 278.629 180.538 278.731 176.061C278.731 175.753 278.731 175.445 278.755 175.137C280.987 175.044 283.209 174.795 285.406 174.391C285.406 174.391 282.808 165.206 283.603 163.712C283.945 163.068 283.452 159.639 282.777 155.945C283.718 156.706 284.888 157.13 286.099 157.146C287.261 159.38 290.796 164.519 292.786 165.311C295.122 166.235 293.369 158.04 292.256 156.854C291.73 156.206 291.287 155.495 290.937 154.737C290.968 154.7 291.002 154.669 291.033 154.635C291.064 154.601 291.088 145.916 290.555 146.073C290.022 146.23 289.387 144.782 289.387 144.782L287.742 130.341L287.051 124.296C287.628 124.721 288.312 124.992 288.9 125.414C290.503 126.588 291.027 128.65 291.729 130.474C292.309 131.974 293.122 133.462 294.457 134.405C295.791 135.348 297.748 135.597 299.079 134.642C300.312 133.746 300.676 132.128 300.947 130.652C303.184 131.438 305.899 129.337 305.61 127.041C305.539 126.474 305.329 125.855 305.625 125.359C306.217 124.379 308.09 124.949 308.707 123.982C308.81 123.814 308.864 123.621 308.861 123.424C308.87 123.381 308.873 123.362 308.873 123.341ZM278.946 131.284C278.912 131.835 279.67 136.266 280.287 139.772C279.781 137.588 278.767 135.255 276.771 133.656C276.771 133.656 276.771 133.545 276.746 133.348H276.771C276.771 133.348 276.687 132.467 276.675 131.213C276.679 130.101 276.761 128.992 276.922 127.892V127.864H276.881C276.881 127.771 276.906 127.676 276.922 127.584C277.044 126.655 277.296 125.749 277.67 124.891C277.836 124.554 278.026 124.231 278.241 123.923C278.57 126.903 278.977 130.726 278.946 131.284ZM280.604 141.55C280.875 143.063 281.07 144.126 281.07 144.126L282.706 155.359V155.412C281.825 150.67 280.7 145.672 280.7 145.672C280.814 144.299 280.782 142.917 280.604 141.55Z" fill="url(#paint0_linear_202_831)"/>
<path d="M260.548 100.011C260.24 97.1641 257.158 94.7085 258.083 92.0003C258.585 90.5245 260.157 89.6217 260.687 88.1551C261.038 87.1877 260.881 86.1247 260.884 85.0957C260.887 84.0666 261.127 82.9173 261.984 82.3473C263.833 81.1149 266.212 83.6506 268.369 83.133C268.891 82.9547 269.399 82.7384 269.889 82.486C272.407 81.4847 275.254 83.3086 276.669 85.6133C278.083 87.9179 278.613 90.6662 279.827 93.0879C280.242 94.0231 280.884 94.8397 281.695 95.4634C282.533 96.0426 283.68 96.2614 284.586 95.7992L288.114 103.656C289.039 105.68 290.099 107.874 292.121 108.764C293.027 109.162 294.037 109.251 294.974 109.575C295.992 109.934 296.898 110.554 297.602 111.373C298.305 112.192 298.78 113.182 298.981 114.242C299.101 114.933 299.104 115.647 299.347 116.304C300.133 118.423 302.836 118.898 304.805 120.001C305.944 120.643 306.899 121.567 307.579 122.685C307.887 123.218 308.152 123.917 307.822 124.441C307.227 125.402 305.418 124.835 304.845 125.812C304.555 126.305 304.759 126.921 304.845 127.488C305.126 129.771 302.497 131.863 300.333 131.08C300.072 132.55 299.717 134.161 298.528 135.052C297.249 136.007 295.353 135.754 294.062 134.818C292.771 133.881 291.988 132.399 291.427 130.905C290.746 129.087 290.238 127.035 288.687 125.867C288.127 125.448 287.455 125.177 286.906 124.755C285.674 123.812 285.057 122.256 284.616 120.75C284.046 118.87 283.593 116.938 282.767 115.164C281.941 113.389 280.635 111.738 278.844 110.927C277.165 110.172 275.229 110.222 273.494 109.609C270.508 108.555 268.299 106.044 265.328 104.861C264.378 104.462 263.478 103.953 262.647 103.345C261.152 102.362 260.745 101.792 260.548 100.011Z" fill="#3F3D56"/>
<g opacity="0.1">
<path opacity="0.1" d="M260.826 87.5513C260.89 87.4308 260.945 87.3062 260.993 87.1785C261.341 86.211 261.187 85.1481 261.19 84.119C261.19 83.7758 261.222 83.4333 261.285 83.0961C261.001 83.7048 260.863 84.3716 260.882 85.0433C260.879 85.8721 260.977 86.741 260.826 87.5513Z" fill="black"/>
<path opacity="0.1" d="M298.818 134.084C297.539 135.036 295.644 134.787 294.353 133.847C293.061 132.907 292.276 131.432 291.73 129.931C291.049 128.113 290.544 126.061 288.99 124.894C288.433 124.475 287.758 124.2 287.212 123.781C285.98 122.839 285.363 121.283 284.919 119.791C284.349 117.912 283.899 115.98 283.07 114.205C282.241 112.431 280.941 110.779 279.147 109.969C277.471 109.214 275.535 109.263 273.8 108.65C270.811 107.597 268.601 105.086 265.634 103.902C264.684 103.502 263.783 102.993 262.949 102.387C261.489 101.379 261.1 100.809 260.885 99.0312C260.577 96.363 257.865 94.0368 258.287 91.5227C258.218 91.6587 258.157 91.7986 258.105 91.9417C257.18 94.6531 260.262 97.1087 260.57 99.9525C260.771 101.73 261.187 102.3 262.635 103.308C263.469 103.915 264.369 104.423 265.319 104.824C268.287 106.007 270.497 108.521 273.486 109.572C275.221 110.188 277.156 110.135 278.833 110.89C280.626 111.701 281.915 113.355 282.756 115.127C283.597 116.898 284.047 118.824 284.605 120.713C285.058 122.204 285.653 123.76 286.898 124.703C287.456 125.122 288.131 125.396 288.676 125.815C290.217 126.983 290.735 129.035 291.416 130.852C291.977 132.347 292.762 133.826 294.054 134.762C295.345 135.699 297.24 135.952 298.519 134.999C299.336 134.383 299.752 133.444 300.026 132.436C299.782 133.086 299.364 133.656 298.818 134.084Z" fill="black"/>
<path opacity="0.1" d="M305.151 124.844C305.033 125.065 304.981 125.316 305.003 125.565C305.699 124.878 307.27 125.282 307.819 124.398C307.946 124.179 307.996 123.924 307.961 123.674C307.246 124.351 305.674 123.948 305.151 124.844Z" fill="black"/>
<path opacity="0.1" d="M300.624 130.113C300.565 130.421 300.507 130.751 300.433 131.071C302.319 131.66 304.497 130.147 304.806 128.237C304.057 129.706 302.208 130.689 300.624 130.113Z" fill="black"/>
</g>
<path d="M264.53 101.493C264.53 101.493 265.557 103.564 262.527 103.607C259.498 103.65 264.478 117.052 264.478 117.052L269.514 123.461L275.779 120.072L276.139 110.724L276.602 105.076C276.602 105.076 270.746 103.175 271.825 100.661C272.903 98.1471 264.53 101.493 264.53 101.493Z" fill="#FBBEBE"/>
<path d="M282.716 156.139C282.716 156.139 286.414 159.777 290.728 154.949L287.416 151.434H283.224L282.716 156.139Z" fill="#575A89"/>
<path opacity="0.1" d="M283.116 151.434L282.607 156.139C282.607 156.139 286.306 159.777 290.62 154.949" fill="black"/>
<path d="M289.338 152.075C289.338 152.075 290.827 155.979 291.906 157.159C292.984 158.339 294.679 166.503 292.42 165.579C290.161 164.655 285.847 157.775 285.588 156.595C285.329 155.415 285.23 152.075 285.23 152.075H289.338Z" fill="#FBBEBE"/>
<path d="M257.032 172.102L276.959 172.872L274.648 164.448L264.61 164.245L257.032 172.102Z" fill="#575A89"/>
<path opacity="0.1" d="M259.803 172.102L279.733 172.872L277.421 164.448L267.381 164.245L259.803 172.102Z" fill="black"/>
<path d="M263.553 186.006C263.082 186.885 263.263 189.923 263.476 192.169C263.612 193.598 263.76 194.698 263.76 194.698C263.76 194.698 256.311 197.009 255.183 195.006C254.896 194.498 254.755 193.607 254.705 192.563C254.551 189.482 255.183 185.042 255.183 185.042C255.183 185.042 254.875 178.214 254.721 177.546C254.659 177.278 254.564 176.427 254.471 175.506C254.335 174.138 254.206 172.616 254.206 172.616L264.376 167.224C264.376 167.224 264.376 168.235 264.357 169.791C264.302 174.677 264.139 184.928 263.553 186.006Z" fill="#FBBEBE"/>
<path opacity="0.1" d="M263.759 194.698C263.759 194.698 256.311 197.009 255.183 195.006C254.896 194.498 254.754 193.607 254.705 192.563C256.246 192.329 260.936 191.682 263.476 192.169C263.611 193.598 263.759 194.698 263.759 194.698Z" fill="black"/>
<path d="M264.016 233.519H263.898C263.002 233.553 257.904 233.519 257.904 233.519C257.83 233.441 257.76 233.359 257.695 233.273C257.244 232.709 256.947 232.039 256.831 231.326C256.715 230.614 256.784 229.884 257.032 229.206C257.957 226.689 258.059 222.067 258.059 222.067C258.059 222.067 258.419 220.887 258.111 220.219C257.803 219.55 258.006 218.524 258.006 218.524C257.959 218.118 257.855 217.721 257.698 217.344C257.442 216.728 257.75 215.597 257.75 215.597C257.715 214.501 257.542 213.414 257.236 212.362C256.773 211.028 253.383 195.16 254.206 193.259C254.206 193.259 261.396 192.027 264.12 192.951L263.76 205.275C263.76 205.275 262.475 208.973 263.553 209.949C264.632 210.926 263.606 213.955 263.606 213.955C263.606 213.955 263.452 214.519 264.376 216.42C265.301 218.321 264.376 219.193 264.376 219.193V222.837C264.376 222.837 263.658 225.302 264.478 227.305C265.298 229.308 264.376 233.455 264.016 233.519Z" fill="#3F3D56"/>
<path d="M278.126 186.007C277.655 186.885 277.837 189.923 278.049 192.169C278.185 193.598 278.333 194.698 278.333 194.698C278.333 194.698 270.884 197.009 269.756 195.006C269.47 194.498 269.328 193.608 269.279 192.563C269.124 189.482 269.756 185.042 269.756 185.042C269.756 185.042 269.448 178.215 269.294 177.546C269.211 177.185 269.066 173.747 268.952 170.663C268.856 168.032 268.779 165.653 268.779 165.653L278.949 167.224C278.949 167.224 278.949 171.695 278.823 176.289C278.712 180.744 278.505 185.31 278.126 186.007Z" fill="#FBBEBE"/>
<path opacity="0.1" d="M278.334 194.698C278.334 194.698 270.885 197.009 269.757 195.006C269.47 194.498 269.329 193.607 269.279 192.563C270.82 192.329 275.511 191.682 278.05 192.169C278.186 193.598 278.334 194.698 278.334 194.698Z" fill="black"/>
<path d="M278.589 233.519H278.472C277.575 233.553 272.478 233.519 272.478 233.519C272.404 233.441 272.334 233.359 272.269 233.273C271.818 232.709 271.521 232.039 271.404 231.326C271.288 230.614 271.358 229.884 271.606 229.206C272.531 226.676 272.623 222.055 272.623 222.055C272.623 222.055 272.984 220.875 272.675 220.206C272.367 219.538 272.571 218.512 272.571 218.512C272.523 218.106 272.42 217.709 272.262 217.332C272.007 216.715 272.315 215.585 272.315 215.585C272.28 214.489 272.107 213.402 271.8 212.35C271.338 211.015 267.948 195.148 268.771 193.247C268.771 193.247 275.961 192.015 278.685 192.939L278.324 205.263C278.324 205.263 277.039 208.96 278.118 209.937C279.196 210.914 278.17 213.942 278.17 213.942C278.17 213.942 278.016 214.506 278.941 216.407C279.865 218.308 278.941 219.18 278.941 219.18V222.825C278.941 222.825 278.223 225.29 279.042 227.293C279.862 229.295 278.95 233.455 278.589 233.519Z" fill="#3F3D56"/>
<path opacity="0.1" d="M268.536 103.915C272.536 103.915 275.778 100.673 275.778 96.6743C275.778 92.6755 272.536 89.4338 268.536 89.4338C264.536 89.4338 261.294 92.6755 261.294 96.6743C261.294 100.673 264.536 103.915 268.536 103.915Z" fill="black"/>
<path d="M268.536 103.607C272.536 103.607 275.778 100.365 275.778 96.3662C275.778 92.3674 272.536 89.1257 268.536 89.1257C264.536 89.1257 261.294 92.3674 261.294 96.3662C261.294 100.365 264.536 103.607 268.536 103.607Z" fill="#FBBEBE"/>
<path opacity="0.1" d="M254.206 172.616L264.376 167.224C264.376 167.224 264.376 168.235 264.357 169.791C262.872 170.678 260.632 172.012 258.477 173.272C257.306 173.96 256.163 174.625 255.183 175.183C254.955 175.306 254.717 175.409 254.471 175.491C254.335 174.138 254.206 172.616 254.206 172.616Z" fill="black"/>
<path opacity="0.1" d="M278.949 167.212C278.949 167.212 278.949 171.683 278.823 176.277H278.786C278.026 176.304 277.265 176.28 276.509 176.206C275.18 176.064 274.117 175.713 273.735 175.016C272.962 173.661 270.795 171.935 268.965 170.651C268.869 168.019 268.792 165.641 268.792 165.641L278.949 167.212Z" fill="black"/>
<path d="M277.058 128.055C276.8 130.06 276.75 132.087 276.91 134.103C281.582 137.954 280.709 146.067 280.709 146.067C280.709 146.067 284.306 162.501 283.535 163.989C282.765 165.477 285.28 174.619 285.28 174.619C283.136 175.025 280.966 175.274 278.786 175.365C278.027 175.392 277.266 175.368 276.509 175.294C275.181 175.152 274.118 174.801 273.735 174.104C272.299 171.59 266.083 167.841 266.083 167.841C266.083 167.841 262.145 170.201 258.478 172.348C257.307 173.035 256.163 173.701 255.183 174.258C254.388 174.68 253.509 174.921 252.61 174.964C248.249 175.287 242.44 172.558 243.365 171.59C244.496 170.407 250.095 149.662 250.095 149.662C250.095 149.662 252.918 136.824 255.384 135.027C255.816 134.701 256.138 134.251 256.308 133.736C257.152 131.392 255.741 127.633 255.741 127.633C255.741 127.633 247.781 117.826 248.138 117.259C248.496 116.692 248.499 113.666 248.499 113.666C248.499 113.666 249.476 108.891 250.04 106.58C250.604 104.269 254.662 103.702 255.843 103.909C257.023 104.115 259.692 104.833 260.82 103.909C261.948 102.984 263.852 104.269 263.852 104.269L268.53 105.557L272.737 103.092C272.737 103.092 276.953 103.308 277.313 103.872C277.674 104.436 283.221 105.517 283.221 105.517C286.044 107.415 285.942 116.455 285.942 116.455C285.942 116.455 279.162 122.358 277.776 125.39C277.416 126.241 277.175 127.138 277.058 128.055Z" fill="#575A89"/>
<path d="M284.407 115.204L285.948 116.436L287.542 130.763L289.132 145.142C289.132 145.142 289.748 146.581 290.263 146.427C290.777 146.273 290.725 154.949 290.725 154.949C290.725 154.949 284.827 151.323 282.712 156.139L281.067 144.526C281.067 144.526 278.959 132.664 279.011 131.74C279.064 130.815 277.933 120.802 277.933 120.802L284.407 115.204Z" fill="#575A89"/>
<path d="M249.275 115.872L248.144 117.259C248.144 117.259 248.249 123.214 247.374 124.653C246.498 126.092 249.79 134.513 251.022 133.998C252.255 133.484 255.029 120.34 255.029 120.186C255.029 120.032 249.275 115.872 249.275 115.872Z" fill="#575A89"/>
<path d="M249.174 124.345C249.174 124.345 245.578 127.99 245.833 129.737C246.089 131.484 249.531 136.971 254.462 134.023C254.462 134.023 259.036 125.424 249.174 124.345Z" fill="#575A89"/>
<path opacity="0.1" d="M263.898 233.529C263.001 233.563 257.904 233.529 257.904 233.529C257.829 233.451 257.759 233.368 257.694 233.282C258.998 232.839 261.815 232.173 263.898 233.529Z" fill="black"/>
<path opacity="0.1" d="M278.478 233.529C277.581 233.563 272.484 233.529 272.484 233.529C272.409 233.451 272.339 233.368 272.274 233.282C273.572 232.839 276.389 232.173 278.478 233.529Z" fill="black"/>
<path opacity="0.1" d="M258.841 143.214C258.055 150.75 258.314 165.705 258.477 172.348C257.306 173.035 256.163 173.701 255.183 174.258C254.387 174.68 253.509 174.921 252.61 174.964C252.283 172.955 256.807 152.321 258.841 143.214Z" fill="black"/>
<path opacity="0.1" d="M259.802 138.937C259.781 139.045 259.408 140.684 258.841 143.214C259.063 141.054 259.371 139.504 259.802 138.937Z" fill="black"/>
<path opacity="0.1" d="M272.314 138.124C272.314 138.124 276.681 165.545 263.75 168.934C263.747 168.922 272.696 167.563 272.314 138.124Z" fill="black"/>
<path opacity="0.1" d="M278.786 175.365C278.027 175.392 277.266 175.368 276.509 175.294L273.021 137.8C275.246 139.255 277.908 165.863 278.786 175.365Z" fill="black"/>
<path opacity="0.1" d="M263.144 92.1082C263.375 92.0898 263.608 92.1138 263.831 92.1791C264.158 92.342 264.452 92.5634 264.7 92.8323C265.102 93.1681 265.582 93.3965 266.096 93.4962C266.611 93.5958 267.142 93.5635 267.64 93.4023C267.991 93.2452 268.364 93.1414 268.746 93.0942C269.335 93.0942 269.843 93.5255 270.148 94.0185C270.454 94.5114 270.611 95.0968 270.873 95.6237C271.135 96.1506 271.554 96.6497 272.13 96.7791C272.406 96.7898 272.678 96.8526 272.931 96.964C273.086 97.09 273.206 97.2547 273.276 97.4415C273.757 98.4798 274.139 99.7061 275.166 100.214C275.543 100.389 275.955 100.479 276.371 100.476C276.794 100.507 277.218 100.431 277.603 100.255C277.983 100.043 278.296 99.7303 278.509 99.3518C279.15 98.2919 279.224 96.9794 279.073 95.75C278.885 94.1992 278.333 92.7148 277.462 91.4181C276.544 90.1065 275.294 89.0621 273.84 88.3914C272.386 87.7207 270.781 87.4478 269.187 87.6006C268.631 87.6632 268.08 87.7662 267.538 87.9087C265.578 88.4325 263.655 89.4123 262.466 91.0545C262.178 91.4644 261.862 91.8536 261.52 92.2191C262.059 92.1668 262.601 92.1205 263.144 92.1082Z" fill="black"/>
<path d="M263.144 91.8001C263.375 91.7817 263.608 91.8057 263.831 91.871C264.158 92.0339 264.452 92.2553 264.7 92.5242C265.102 92.8599 265.582 93.0884 266.096 93.188C266.611 93.2877 267.142 93.2554 267.64 93.0942C267.991 92.9371 268.364 92.8333 268.746 92.7861C269.335 92.7861 269.843 93.2174 270.148 93.7104C270.454 94.2033 270.611 94.7887 270.873 95.3156C271.135 95.8425 271.554 96.3416 272.13 96.471C272.406 96.4817 272.678 96.5444 272.931 96.6559C273.086 96.7819 273.206 96.9466 273.276 97.1334C273.757 98.1717 274.139 99.398 275.166 99.9064C275.543 100.081 275.955 100.171 276.371 100.168C276.794 100.199 277.218 100.123 277.603 99.9464C277.983 99.7346 278.296 99.4222 278.509 99.0437C279.15 97.9838 279.224 96.6713 279.073 95.4419C278.885 93.8911 278.333 92.4067 277.462 91.11C276.544 89.7984 275.294 88.754 273.84 88.0833C272.386 87.4126 270.781 87.1397 269.187 87.2925C268.631 87.3551 268.08 87.4581 267.538 87.6006C265.578 88.1244 263.655 89.1042 262.466 90.7464C262.178 91.1563 261.862 91.5455 261.52 91.911C262.059 91.8587 262.601 91.8124 263.144 91.8001Z" fill="#3F3D56"/>
<path opacity="0.1" d="M255.284 109.042C255.284 109.042 255.645 111.919 254.412 112.637C253.18 113.355 255.284 109.042 255.284 109.042Z" fill="black"/>
<path opacity="0.1" d="M281.428 131.33C281.428 131.33 284.355 127.017 284.768 128.249C285.18 129.481 281.428 131.33 281.428 131.33Z" fill="black"/>
<path opacity="0.1" d="M281.634 132.766C281.634 132.766 284.521 129.223 284.798 130.609C285.075 131.996 281.634 132.766 281.634 132.766Z" fill="black"/>
<path opacity="0.1" d="M273.153 128.548C272.106 128.563 271.084 128.226 270.25 127.593H269.997C269.132 128.382 267.997 128.809 266.826 128.785C266.217 128.799 265.612 128.69 265.047 128.463C264.481 128.236 263.968 127.897 263.538 127.466H263.202C262.315 128.189 261.2 128.574 260.056 128.553C258.912 128.532 257.812 128.107 256.952 127.352L255.747 127.331C255.747 127.331 257.159 131.09 256.314 133.434L276.91 133.801C276.75 131.785 276.8 129.758 277.057 127.753V127.725L275.926 127.704C275.113 128.268 274.143 128.563 273.153 128.548Z" fill="black"/>
<path opacity="0.1" d="M273.153 129.164C272.106 129.179 271.084 128.843 270.25 128.209H269.997C269.132 128.999 267.997 129.426 266.826 129.401C266.217 129.415 265.612 129.306 265.047 129.079C264.481 128.852 263.968 128.513 263.538 128.083H263.202C262.315 128.805 261.2 129.19 260.056 129.169C258.912 129.148 257.812 128.723 256.952 127.969L255.747 127.947C255.747 127.947 257.159 131.706 256.314 134.051L276.91 134.417C276.75 132.401 276.8 130.375 277.057 128.369V128.341L275.926 128.32C275.113 128.884 274.143 129.179 273.153 129.164Z" fill="black"/>
<path d="M273.153 128.856C272.106 128.871 271.084 128.534 270.25 127.901H269.997C269.132 128.691 267.997 129.118 266.826 129.093C266.217 129.107 265.612 128.998 265.047 128.771C264.481 128.544 263.968 128.205 263.538 127.774H263.202C262.315 128.497 261.2 128.882 260.056 128.861C258.912 128.84 257.812 128.415 256.952 127.66L255.747 127.639C255.747 127.639 257.159 131.398 256.314 133.742L276.91 134.109C276.75 132.093 276.8 130.067 277.057 128.061V128.033L275.926 128.012C275.113 128.576 274.143 128.871 273.153 128.856Z" fill="#3F3D56"/>
<path opacity="0.1" d="M272.237 108.311C272.237 108.311 276.572 108.589 276.6 109.205C276.628 109.821 272.237 108.311 272.237 108.311Z" fill="black"/>
<path opacity="0.1" d="M261.703 105.683C261.703 105.683 257.368 105.961 257.34 106.577C257.312 107.193 261.703 105.683 261.703 105.683Z" fill="black"/>
<path opacity="0.1" d="M278.275 118.282C278.232 118.251 278.189 118.226 278.145 118.199C279.255 119.197 279.07 121.378 277.708 123.178C276.346 124.977 274.278 125.726 273.021 124.918C273.061 124.952 273.094 124.989 273.138 125.023C274.37 125.966 276.528 125.226 277.951 123.366C279.375 121.505 279.514 119.228 278.275 118.282Z" fill="black"/>
<path opacity="0.1" d="M254.456 122.947C253.359 120.968 253.5 118.784 254.742 117.955C254.696 117.977 254.647 117.995 254.601 118.02C253.239 118.778 253.06 121.049 254.188 123.094C255.316 125.14 257.35 126.175 258.712 125.43C258.757 125.404 258.8 125.375 258.841 125.344C257.482 125.96 255.553 124.925 254.456 122.947Z" fill="black"/>
<path opacity="0.1" d="M255.922 106.266L255.524 106.882L254.511 106.343L255.044 105.523C255.396 105.69 255.699 105.946 255.922 106.266Z" fill="black"/>
<path d="M249.481 129.069C249.481 129.069 250.384 124.823 249.173 123.473C247.962 122.124 248.35 115.05 250.199 115.204C252.048 115.358 254.822 120.953 254.36 122.136C253.897 123.319 252.15 129.377 252.15 129.377L249.481 129.069Z" fill="#FBBEBE"/>
<path opacity="0.1" d="M278.478 98.4366C278.265 98.8152 277.951 99.1276 277.572 99.3394C277.186 99.516 276.762 99.5923 276.339 99.5612C275.923 99.5637 275.512 99.4742 275.134 99.2993C274.108 98.7879 273.726 97.5616 273.245 96.5264C273.184 96.3396 273.076 96.1719 272.931 96.0396C272.681 95.9261 272.413 95.8603 272.139 95.8455C271.563 95.7161 271.146 95.2138 270.881 94.6901C270.616 94.1663 270.459 93.587 270.157 93.0848C269.855 92.5826 269.344 92.142 268.755 92.1605C268.372 92.2113 267.999 92.3204 267.649 92.484C267.15 92.644 266.619 92.6754 266.105 92.5752C265.591 92.475 265.111 92.2465 264.709 91.911C264.461 91.6421 264.167 91.4207 263.84 91.2578C263.617 91.1925 263.384 91.1685 263.152 91.1869C262.798 91.1869 262.447 91.2208 262.092 91.2485C261.917 91.4787 261.728 91.6988 261.528 91.9079C262.068 91.8617 262.61 91.8154 263.152 91.8031C263.384 91.7847 263.617 91.8087 263.84 91.874C264.167 92.0369 264.461 92.2583 264.709 92.5272C265.111 92.8627 265.591 93.0912 266.105 93.1914C266.619 93.2916 267.15 93.2602 267.649 93.1002C267.999 92.9366 268.372 92.8275 268.755 92.7767C269.344 92.7767 269.852 93.2081 270.157 93.701C270.462 94.194 270.62 94.7794 270.881 95.3063C271.143 95.8331 271.563 96.3323 272.139 96.4617C272.413 96.4765 272.681 96.5423 272.931 96.6558C273.086 96.7818 273.205 96.9465 273.276 97.1333C273.757 98.1717 274.139 99.3979 275.165 99.9063C275.543 100.081 275.954 100.171 276.37 100.168C276.793 100.199 277.217 100.123 277.603 99.9463C277.982 99.7345 278.296 99.4221 278.509 99.0436C278.987 98.1727 279.201 97.1812 279.125 96.1905C279.102 96.9817 278.879 97.7542 278.478 98.4366Z" fill="black"/>
<path d="M250.847 132.436C252.379 132.436 253.62 131.595 253.62 130.557C253.62 129.519 252.379 128.677 250.847 128.677C249.315 128.677 248.073 129.519 248.073 130.557C248.073 131.595 249.315 132.436 250.847 132.436Z" fill="#575A89"/>
<path d="M160.441 235.174C212.948 235.174 255.513 192.618 255.513 140.123C255.513 87.6284 212.948 45.0728 160.441 45.0728C107.934 45.0728 65.3682 87.6284 65.3682 140.123C65.3682 192.618 107.934 235.174 160.441 235.174Z" fill="#246BFD"/>
<path d="M210.325 187.889C210.325 202.894 186.731 189.171 161.436 189.171C136.14 189.171 110.556 202.327 110.556 187.322C110.556 178.766 118.71 166.867 130.408 158.225C139.222 151.711 150.045 147.047 160.918 147.047C172.098 147.047 183.051 152.096 191.788 159.029C202.814 167.77 210.325 179.515 210.325 187.889Z" fill="#444053"/>
<path d="M191.785 159.022C178.339 156.998 154.021 154.53 130.408 158.218C139.222 151.705 150.045 147.04 160.918 147.04C172.095 147.04 183.048 152.09 191.785 159.022Z" fill="#F6F8FB"/>
<path opacity="0.05" d="M110.555 73.0272C110.555 73.0272 81.9166 91.3318 82.1508 119.964C82.3851 148.596 110.555 73.0272 110.555 73.0272Z" fill="black"/>
<path d="M255.476 21.3301C255.476 21.3301 229.528 19.768 232.588 37.9462C232.588 37.9462 231.971 41.1567 234.893 42.6171C234.893 42.6171 234.939 41.2707 237.552 41.7267C238.484 41.8825 239.43 41.928 240.372 41.8623C241.645 41.7757 242.855 41.2759 243.818 40.4388C243.818 40.4388 251.112 37.4286 253.951 25.508C253.951 25.508 256.049 22.9076 255.966 22.2421L251.587 24.1092C251.587 24.1092 253.081 27.2673 251.895 29.8924C251.895 29.8924 251.753 24.2263 250.912 24.3465C250.742 24.3742 248.638 25.4402 248.638 25.4402C248.638 25.4402 251.211 30.943 249.254 34.9391C249.254 34.9391 249.99 28.1608 247.818 25.8377L244.736 27.637C244.736 27.637 247.744 33.3185 245.704 37.9555C245.704 37.9555 246.228 30.8444 244.089 28.0745L241.294 30.2528C241.294 30.2528 244.12 35.8542 242.397 39.6994C242.397 39.6994 242.172 31.4206 240.69 30.7951C240.69 30.7951 238.246 32.9519 237.873 33.8361C237.873 33.8361 239.808 37.9 238.61 40.0444C238.61 40.0444 237.873 34.5294 237.269 34.4985C237.269 34.4985 234.834 38.1527 234.579 40.6607C234.579 40.6607 234.686 36.9326 236.677 34.1504C236.677 34.1504 234.323 34.554 232.951 36.0822C232.951 36.0822 233.33 33.4972 237.266 33.2723C237.266 33.2723 239.278 30.4993 239.818 30.333C239.818 30.333 235.888 30.0033 233.506 31.0601C233.506 31.0601 235.602 28.623 240.536 29.7291L243.309 27.4799C243.309 27.4799 238.138 26.7713 235.944 27.5538C235.944 27.5538 238.468 25.3971 244.052 26.9684L247.057 25.1722C247.057 25.1722 242.647 24.2232 240.018 24.556C240.018 24.556 242.791 23.0617 247.935 24.6823L250.092 23.7179C250.092 23.7179 246.859 23.0832 245.913 22.9846C244.967 22.886 244.918 22.6211 244.918 22.6211C246.971 22.2874 249.076 22.5317 250.998 23.3266C250.998 23.3266 255.553 21.6166 255.476 21.3301Z" fill="#246BFD"/>
<path d="M228.862 13.2485C228.862 13.2485 217.151 12.5399 218.519 20.754C218.519 20.754 218.245 22.2051 219.561 22.8645C219.561 22.8645 219.58 22.2483 220.763 22.4639C221.183 22.5331 221.61 22.5538 222.036 22.5256C222.611 22.4845 223.158 22.2586 223.595 21.8816C223.595 21.8816 226.889 20.5198 228.171 15.1341C228.171 15.1341 229.121 13.9602 229.096 13.6583L227.118 14.5025C227.118 14.5025 227.796 15.929 227.262 17.1152C227.262 17.1152 227.198 14.5549 226.819 14.6165C226.742 14.6165 225.789 15.1095 225.789 15.1095C225.789 15.1095 226.954 17.5959 226.076 19.4014C226.076 19.4014 226.409 16.3388 225.429 15.2882L224.036 16.1016C224.036 16.1016 225.395 18.6712 224.473 20.7663C224.473 20.7663 224.708 17.5527 223.743 16.3018L222.479 17.2847C222.479 17.2847 223.755 19.8142 222.979 21.5519C222.979 21.5519 222.877 17.8115 222.205 17.5281C222.205 17.5281 221.102 18.5017 220.932 18.9022C220.932 18.9022 221.808 20.7509 221.265 21.7091C221.265 21.7091 220.932 19.2165 220.649 19.2073C220.649 19.2073 219.549 20.8556 219.435 21.9802C219.488 20.9337 219.814 19.9192 220.381 19.0378C219.747 19.1577 219.162 19.4609 218.698 19.9097C218.698 19.9097 218.868 18.742 220.652 18.6403C220.652 18.6403 221.561 17.3894 221.805 17.3124C221.805 17.3124 220.029 17.1645 218.954 17.6421C218.954 17.6421 219.9 16.5391 222.131 17.0259L223.364 16.0122C223.364 16.0122 221.028 15.7041 220.036 16.043C220.036 16.043 221.176 15.0694 223.7 15.7811L225.056 14.9677C225.056 14.9677 223.065 14.5395 221.875 14.6935C221.875 14.6935 223.13 14.0188 225.453 14.7521L226.424 14.3145C226.424 14.3145 224.963 14.028 224.538 13.9849C224.113 13.9417 224.085 13.8216 224.085 13.8216C225.01 13.6677 225.96 13.7744 226.828 14.1297C226.828 14.1297 228.896 13.3779 228.862 13.2485Z" fill="#246BFD"/>
<path opacity="0.1" d="M331.201 224.92C335.784 224.92 339.5 224.293 339.5 223.518C339.5 222.744 335.784 222.116 331.201 222.116C326.617 222.116 322.901 222.744 322.901 223.518C322.901 224.293 326.617 224.92 331.201 224.92Z" fill="#246BFD"/>
<path opacity="0.1" d="M14.9134 248.241C19.497 248.241 23.2126 247.613 23.2126 246.839C23.2126 246.065 19.497 245.437 14.9134 245.437C10.3299 245.437 6.61426 246.065 6.61426 246.839C6.61426 247.613 10.3299 248.241 14.9134 248.241Z" fill="#246BFD"/>
<path opacity="0.1" d="M63.0902 250C67.6737 250 71.3894 249.372 71.3894 248.598C71.3894 247.824 67.6737 247.196 63.0902 247.196C58.5067 247.196 54.791 247.824 54.791 248.598C54.791 249.372 58.5067 250 63.0902 250Z" fill="#246BFD"/>
<path d="M313.037 240.637C319.881 240.637 325.429 239.699 325.429 238.542C325.429 237.384 319.881 236.446 313.037 236.446C306.193 236.446 300.646 237.384 300.646 238.542C300.646 239.699 306.193 240.637 313.037 240.637Z" fill="#246BFD"/>
<path d="M318.159 235.119C318.724 234.657 319.137 234.035 319.342 233.335C319.493 232.629 319.191 231.779 318.516 231.52C317.758 231.23 316.947 231.757 316.334 232.287C315.721 232.817 315.015 233.421 314.211 233.31C314.624 232.936 314.934 232.46 315.109 231.93C315.284 231.401 315.318 230.835 315.209 230.287C315.174 230.061 315.078 229.848 314.932 229.671C314.51 229.221 313.749 229.412 313.243 229.767C311.641 230.894 311.194 233.07 311.184 235.029C311.024 234.324 311.16 233.587 311.157 232.872C311.154 232.158 310.953 231.332 310.343 230.953C309.965 230.751 309.54 230.651 309.11 230.663C308.389 230.636 307.588 230.706 307.095 231.233C306.479 231.89 306.642 232.986 307.175 233.698C307.708 234.41 308.516 234.872 309.258 235.368C309.856 235.723 310.366 236.209 310.75 236.789C310.795 236.87 310.832 236.956 310.861 237.044H315.376C316.386 236.531 317.322 235.883 318.159 235.119Z" fill="#246BFD"/>
<path d="M18.7868 209.284C18.7868 209.284 20.4787 211.496 18.0041 214.83C15.5294 218.163 13.4893 220.992 14.3059 223.075C14.3059 223.075 18.038 216.869 21.0858 216.78C24.1337 216.691 22.1275 213.015 18.7868 209.284Z" fill="#246BFD"/>
<path opacity="0.1" d="M18.7867 209.284C18.9337 209.498 19.0498 209.731 19.1319 209.977C22.0966 213.459 23.6744 216.709 20.8269 216.789C18.1704 216.866 14.9715 221.611 14.2227 222.81C14.2488 222.903 14.2797 222.994 14.3151 223.084C14.3151 223.084 18.0471 216.879 21.095 216.789C24.1428 216.7 22.1274 213.015 18.7867 209.284Z" fill="black"/>
<path d="M21.9333 212.103C21.9333 212.883 21.8439 213.514 21.7361 213.514C21.6283 213.514 21.542 212.898 21.542 212.103C21.542 211.308 21.6498 211.69 21.7607 211.69C21.8717 211.69 21.9333 211.324 21.9333 212.103Z" fill="#FFD037"/>
<path d="M22.9997 213.034C22.3157 213.406 21.7211 213.631 21.6687 213.536C21.6163 213.44 22.1309 213.064 22.8149 212.692C23.4989 212.319 23.2277 212.59 23.2801 212.692C23.3325 212.793 23.696 212.661 22.9997 213.034Z" fill="#FFD037"/>
<path d="M9.84419 209.284C9.84419 209.284 8.1523 211.496 10.6239 214.83C13.0955 218.163 15.1387 220.992 14.322 223.075C14.322 223.075 10.5869 216.869 7.54212 216.78C4.49733 216.691 6.50048 213.015 9.84419 209.284Z" fill="#246BFD"/>
<path opacity="0.1" d="M9.84378 209.284C9.6955 209.497 9.57922 209.73 9.49862 209.977C6.53396 213.459 4.95302 216.709 7.80365 216.789C10.457 216.866 13.659 221.611 14.4048 222.81C14.3796 222.903 14.3498 222.994 14.3154 223.084C14.3154 223.084 10.5803 216.879 7.53554 216.789C4.49076 216.7 6.50006 213.015 9.84378 209.284Z" fill="black"/>
<path d="M6.69727 212.103C6.69727 212.883 6.78354 213.514 6.89137 213.514C6.99921 213.514 7.08548 212.898 7.08548 212.103C7.08548 211.308 6.97764 211.69 6.86981 211.69C6.76197 211.69 6.69727 211.324 6.69727 212.103Z" fill="#FFD037"/>
<path d="M5.6156 213.034C6.29959 213.406 6.89732 213.631 6.9497 213.536C7.00207 213.44 6.48754 213.064 5.80354 212.692C5.11955 212.319 5.3876 212.59 5.3383 212.692C5.28901 212.793 4.9316 212.661 5.6156 213.034Z" fill="#FFD037"/>
<path d="M7.23633 222.794C7.23633 222.794 11.9699 222.65 13.3999 221.633C14.8298 220.616 20.6821 219.405 21.0365 221.017C21.3909 222.628 28.1492 229.12 22.8054 229.163C17.4616 229.206 10.389 228.328 8.9652 227.462C7.54142 226.596 7.23633 222.794 7.23633 222.794Z" fill="#A8A8A8"/>
<path opacity="0.2" d="M22.8948 228.611C17.551 228.654 10.4783 227.776 9.05457 226.911C7.96979 226.251 7.53834 223.882 7.3935 222.788H7.23633C7.23633 222.788 7.54451 226.606 8.95903 227.471C10.3736 228.337 17.4555 229.215 22.7992 229.172C24.3401 229.172 24.8733 228.608 24.8455 227.798C24.6298 228.294 24.0443 228.602 22.8948 228.611Z" fill="black"/>
<path d="M126.639 127.66C128.448 127.559 136.963 126.918 142.372 123.834C143.24 123.323 144.221 123.034 145.228 122.993C146.948 122.943 148.926 123.661 147.66 127.679C145.607 134.251 133.69 141.645 126.294 141.236C119.181 140.841 110.743 137.976 105.172 127.901C104.638 126.932 104.375 125.836 104.41 124.73C104.475 122.697 105.215 120.149 109.033 122.99C114.192 126.826 123.98 127.553 125.943 127.66C126.175 127.673 126.407 127.673 126.639 127.66Z" fill="#444053"/>
<path d="M195.055 127.66C196.864 127.559 205.379 126.918 210.788 123.834C211.656 123.323 212.637 123.034 213.644 122.993C215.364 122.943 217.342 123.661 216.076 127.679C214.023 134.251 202.106 141.645 194.71 141.236C187.597 140.841 179.159 137.976 173.588 127.901C173.054 126.932 172.791 125.836 172.826 124.73C172.891 122.697 173.631 120.149 177.449 122.99C182.608 126.826 192.396 127.553 194.359 127.66C194.591 127.673 194.823 127.673 195.055 127.66Z" fill="#444053"/>
</g>
<defs>
<linearGradient id="paint0_linear_202_831" x1="275.436" y1="233.541" x2="275.436" y2="81.3245" gradientUnits="userSpaceOnUse">
<stop stop-color="#808080" stop-opacity="0.25"/>
<stop offset="0.54" stop-color="#808080" stop-opacity="0.12"/>
<stop offset="1" stop-color="#808080" stop-opacity="0.1"/>
</linearGradient>
<clipPath id="clip0_202_831">
<rect width="339" height="250" fill="white" transform="translate(0.5)"/>
</clipPath>
</defs>
</svg>
